<!DOCTYPE svg PUBLIC "-//W3C//DTD SVG 1.1//EN" "http://www.w3.org/Graphics/SVG/1.1/DTD/svg11.dtd">
<!-- Uploaded to: SVG Repo, www.svgrepo.com, Transformed by: SVG Repo Mixer Tools -->
<svg fill="#00233d" height="800px" width="800px" version="1.1" id="Layer_1" xmlns="http://www.w3.org/2000/svg" xmlns:xlink="http://www.w3.org/1999/xlink" viewBox="0 0 472.615 472.615" xml:space="preserve" stroke="#00233d">
<g id="SVGRepo_bgCarrier" stroke-width="0"/>
<g id="SVGRepo_tracerCarrier" stroke-linecap="round" stroke-linejoin="round"/>
<g id="SVGRepo_iconCarrier"> <g> <g> <polygon points="310.199,67.666 178.323,199.538 82.341,295.518 122.756,335.937 350.614,108.079 "/> </g> </g> <g> <g> <polygon points="351.471,26.394 324.122,53.742 418.875,148.493 446.223,121.146 447.857,24.759 "/> </g> </g> <g> <g> <path d="M68.418,309.442l-24.035,24.036C31.3,346.56,24.758,363.706,24.758,380.853c0,17.146,6.541,34.293,19.623,47.375 c13.083,13.085,30.23,19.625,47.377,19.625s34.294-6.541,47.377-19.625l24.031-24.032L68.418,309.442z"/> </g> </g> <g> <g> <polygon points="364.537,122.002 136.678,349.86 177.09,390.274 273.074,294.291 404.952,162.415 "/> </g> </g> <g> <g> <polygon points="357.338,237.875 237.875,357.337 261.987,381.449 314.965,328.479 328.888,342.401 275.911,395.372 299.726,419.187 352.705,366.209 366.628,380.132 313.649,433.111 353.153,472.615 472.615,353.151 "/> </g> </g> <g> <g> <polygon points="119.462,0 0,119.461 39.428,158.889 92.407,105.911 106.331,119.834 53.351,172.812 77.16,196.623 130.138,143.651 144.061,157.574 91.084,210.545 115.274,234.735 234.736,115.274 "/> </g> </g> </g>
</svg>